<svg width="48" height="48" viewBox="0 0 48 48" fill="none" xmlns="http://www.w3.org/2000/svg">
  <rect width="48" height="48" fill="white" rx="24"/>
  <g transform="translate(6, 6)">
    <!-- Google G Logo -->
    <path d="M35.64 18.36h-17.28v6.91h10.18c-0.91 4.55-4.91 6.91-10.18 6.91-6.18 0-11.18-5-11.18-11.18s5-11.18 11.18-11.18c2.73 0 5.18 0.91 7.09 2.45l5.18-5.18c-3.18-2.91-7.36-4.64-12.27-4.64-10 0-18.18 8.18-18.18 18.18s8.18 18.18 18.18 18.18c9.09 0 17.27-6.55 17.27-18.18 0-1.82-0.18-3.18-0.55-4.64z" fill="#4285F4"/>
    <path d="M35.64 18.36h-17.28v6.91h10.18c-0.91 4.55-4.91 6.91-10.18 6.91-6.18 0-11.18-5-11.18-11.18 0-2.91 1.09-5.55 2.91-7.55l-5.45-4.27c-3.09 3.73-5 8.45-5 13.82 0 10 8.18 18.18 18.18 18.18 9.09 0 17.27-6.55 17.27-18.18 0-1.82-0.18-3.18-0.55-4.64z" fill="#34A853"/>
    <path d="M7.36 13.73c1.82-2 4.36-3.36 7.09-3.73l-5.45-4.27c-3.09 3.73-5 8.45-5 13.82 0 1.91 0.27 3.73 0.73 5.45l5.45-4.27c-1.64-1.91-2.73-4.36-2.82-7z" fill="#FBBC05"/>
    <path d="M18.36 10.36c2.73 0 5.18 0.91 7.09 2.45l5.18-5.18c-3.18-2.91-7.36-4.64-12.27-4.64-4.64 0-8.73 1.91-11.73 5l5.45 4.27c1.36-1.45 3.27-2.27 5.27-2.27z" fill="#EA4335"/>
  </g>
</svg>
